<svg id="Layer_1" xmlns="http://www.w3.org/2000/svg" viewBox="0 0 600 600"><defs><style>.cls-1{fill:#132101;}.cls-2{fill:#e7e5db;}</style></defs><rect class="cls-1" x="0" y="0" width="600" height="600"/><path class="cls-2" d="M453.26696,379.43314c1.3039,26.29869,3.25961,52.39817,5.83595,78.2974-46.61459-5.7203-93.97585-8.66491-141.95749-8.66491-23.98549,0-47.83441.73628-71.49399,2.18728-23.67011,1.451-47.16141,3.61723-70.4635,6.47763,150.9691-119.40233,283.91497-315.46108,283.91497-315.46108-5.15256,51.78819-7.80245,104.41741-7.80245,157.73054,0,26.65605.66247,53.14472,1.9665,79.43314Z"/><path class="cls-2" d="M317.14542,150.93386c47.98164,0,95.3429-2.93383,141.95749-8.6644l-276.53316,121.86225c-.90431-41.08336-3.38605-81.72516-7.38181-121.86225,46.60406,5.73057,93.97585,8.6644,141.95749,8.6644Z"/><path class="cls-2" d="M182.97986,300c0,53.31261-2.63937,105.94235-7.79192,157.73054,0,0-19.66382-79.63287-101.08425-145.79601l108.46606-47.80283c.27328,11.914.41011,23.88036.41011,35.86829Z"/></svg>
